<mxfile host="127.0.0.1" modified="2022-07-27T15:53:03.028Z" agent="5.0 (Macintosh; Intel Mac OS X 10_15_7) AppleWebKit/605.1.15 (KHTML, like Gecko) Version/15.5 Safari/605.1.15" etag="yHhUQ88pTBrtIAluVWAM" version="16.4.5" type="embed" pages="8"><diagram id="Cho6mK414YNnC17oAl1F" name="Step4B:executeexternal"><mxGraphModel dx="1562" dy="806" grid="1" gridSize="10" guides="1" tooltips="1" connect="1" arrows="1" fold="1" page="1" pageScale="1" pageWidth="850" pageHeight="1100" math="0" shadow="0"><root><mxCell id="0"/><mxCell id="1" parent="0"/><mxCell id="_Pil8NNrEzOsYqOW0OmC-1" value="The Computer -- The Hardware -- The Machine" style="rounded=0;whiteSpace=wrap;html=1;strokeWidth=4;verticalAlign=bottom;fontSize=40;fontStyle=1;fillColor=#CFE2F3;strokeColor=none;" parent="1" vertex="1"><mxGeometry x="-200" y="633" width="969" height="218" as="geometry"/></mxCell><mxCell id="_Pil8NNrEzOsYqOW0OmC-2" value="" style="group" parent="1" vertex="1" connectable="0"><mxGeometry x="-190" y="644" width="467" height="160" as="geometry"/></mxCell><mxCell id="_Pil8NNrEzOsYqOW0OmC-3" value="I/O Devices" style="rounded=1;whiteSpace=wrap;html=1;fillColor=#34A5DA;strokeColor=none;fontColor=#FFFFFF;verticalAlign=bottom;fontSize=40;" parent="_Pil8NNrEzOsYqOW0OmC-2" vertex="1"><mxGeometry width="467" height="160" as="geometry"/></mxCell><mxCell id="_Pil8NNrEzOsYqOW0OmC-4" value="Storage&lt;br style=&quot;font-size: 22px;&quot;&gt;Devices" style="shape=cylinder3;whiteSpace=wrap;html=1;boundedLbl=1;backgroundOutline=1;size=9.588235294117723;strokeWidth=3;fontSize=22;" parent="_Pil8NNrEzOsYqOW0OmC-2" vertex="1"><mxGeometry x="280" y="20" width="160" height="80" as="geometry"/></mxCell><mxCell id="_Pil8NNrEzOsYqOW0OmC-5" value="Communication&lt;br style=&quot;font-size: 22px;&quot;&gt;Devices" style="html=1;shadow=0;dashed=0;align=center;verticalAlign=middle;shape=mxgraph.arrows2.arrow;dy=0;dx=13.94;notch=0;strokeWidth=4;direction=south;fontSize=22;" parent="_Pil8NNrEzOsYqOW0OmC-2" vertex="1"><mxGeometry x="30" y="20" width="230" height="80" as="geometry"/></mxCell><mxCell id="_Pil8NNrEzOsYqOW0OmC-6" value="Main&lt;br&gt;Memory" style="rounded=0;whiteSpace=wrap;html=1;fontSize=40;fontColor=#FFFFFF;strokeWidth=3;fillColor=#34A5DA;strokeColor=none;" parent="1" vertex="1"><mxGeometry x="290" y="643" width="230" height="160" as="geometry"/></mxCell><mxCell id="_Pil8NNrEzOsYqOW0OmC-7" value="CPU" style="ellipse;whiteSpace=wrap;html=1;fontSize=40;fontColor=#FFFFFF;strokeWidth=3;fillColor=#34A5DA;strokeColor=none;" parent="1" vertex="1"><mxGeometry x="530" y="643" width="230" height="160" as="geometry"/></mxCell><mxCell id="_Pil8NNrEzOsYqOW0OmC-8" value="The world of running programs inside the Machine" style="rounded=0;whiteSpace=wrap;html=1;fillColor=#D9EAD3;dashed=1;strokeColor=#8ABE5E;strokeWidth=2;verticalAlign=bottom;fontSize=40;fontStyle=1" parent="1" vertex="1"><mxGeometry x="-200" y="100" width="969" height="530" as="geometry"/></mxCell><mxCell id="_Pil8NNrEzOsYqOW0OmC-9" value="UNIX Kernel" style="ellipse;whiteSpace=wrap;html=1;fillColor=#8ABE5E;fontSize=40;fontColor=#FFFFFF;strokeColor=none;verticalAlign=bottom;" parent="1" vertex="1"><mxGeometry x="-135.5" y="380" width="840" height="192" as="geometry"/></mxCell><mxCell id="_Pil8NNrEzOsYqOW0OmC-10" value="bash" style="ellipse;whiteSpace=wrap;html=1;fillColor=#8ABE5E;fontSize=32;fontColor=#FFFFFF;strokeColor=none;verticalAlign=middle;fontStyle=0" parent="1" vertex="1"><mxGeometry x="-150" y="110" width="170" height="102" as="geometry"/></mxCell><mxCell id="_Pil8NNrEzOsYqOW0OmC-11" value="" style="endArrow=block;html=1;rounded=0;fontSize=18;strokeColor=#FF0000;strokeWidth=16;endFill=1;exitX=0.963;exitY=0.578;exitDx=0;exitDy=0;exitPerimeter=0;" parent="1" source="_Pil8NNrEzOsYqOW0OmC-5" edge="1"><mxGeometry width="50" height="50" relative="1" as="geometry"><mxPoint x="-48" y="748" as="sourcePoint"/><mxPoint x="770" y="804" as="targetPoint"/><Array as="points"><mxPoint x="-63" y="810"/></Array></mxGeometry></mxCell><mxCell id="_Pil8NNrEzOsYqOW0OmC-12" value="" style="endArrow=block;html=1;rounded=0;fontSize=18;strokeColor=#FF0000;strokeWidth=16;dashed=1;endFill=1;entryX=0.5;entryY=1;entryDx=0;entryDy=0;exitX=0.013;exitY=0.57;exitDx=0;exitDy=0;exitPerimeter=0;" parent="1" source="_Pil8NNrEzOsYqOW0OmC-5" target="_Pil8NNrEzOsYqOW0OmC-10" edge="1"><mxGeometry width="50" height="50" relative="1" as="geometry"><mxPoint x="-47" y="663" as="sourcePoint"/><mxPoint x="279" y="226" as="targetPoint"/></mxGeometry></mxCell><mxCell id="_Pil8NNrEzOsYqOW0OmC-13" value="stat" style="rounded=0;whiteSpace=wrap;html=1;fontSize=18;fontStyle=1" parent="1" vertex="1"><mxGeometry x="580" y="430" width="60" height="30" as="geometry"/></mxCell><mxCell id="_Pil8NNrEzOsYqOW0OmC-14" value="close" style="rounded=0;whiteSpace=wrap;html=1;fontSize=18;fontStyle=1" parent="1" vertex="1"><mxGeometry x="510" y="410" width="60" height="30" as="geometry"/></mxCell><mxCell id="_Pil8NNrEzOsYqOW0OmC-15" value="open" style="rounded=0;whiteSpace=wrap;html=1;fontSize=18;fontStyle=1" parent="1" vertex="1"><mxGeometry x="440" y="394" width="60" height="30" as="geometry"/></mxCell><mxCell id="_Pil8NNrEzOsYqOW0OmC-16" value="write" style="rounded=0;whiteSpace=wrap;html=1;fontSize=18;fontStyle=1" parent="1" vertex="1"><mxGeometry x="370" y="388" width="60" height="30" as="geometry"/></mxCell><mxCell id="_Pil8NNrEzOsYqOW0OmC-17" value="read" style="rounded=0;whiteSpace=wrap;html=1;fontSize=18;fontStyle=1" parent="1" vertex="1"><mxGeometry x="300" y="388" width="60" height="30" as="geometry"/></mxCell><mxCell id="_Pil8NNrEzOsYqOW0OmC-18" value="mmap" style="rounded=0;whiteSpace=wrap;html=1;fontSize=18;fontStyle=1" parent="1" vertex="1"><mxGeometry x="230" y="388" width="60" height="30" as="geometry"/></mxCell><mxCell id="_Pil8NNrEzOsYqOW0OmC-19" value="brk" style="rounded=0;whiteSpace=wrap;html=1;fontSize=18;fontStyle=1" parent="1" vertex="1"><mxGeometry x="160" y="388" width="60" height="30" as="geometry"/></mxCell><mxCell id="_Pil8NNrEzOsYqOW0OmC-20" value="exit" style="rounded=0;whiteSpace=wrap;html=1;fontSize=18;fontStyle=1" parent="1" vertex="1"><mxGeometry x="90" y="394" width="60" height="30" as="geometry"/></mxCell><mxCell id="_Pil8NNrEzOsYqOW0OmC-21" value="wait" style="rounded=0;whiteSpace=wrap;html=1;fontSize=18;fontStyle=1" parent="1" vertex="1"><mxGeometry x="20" y="410" width="60" height="30" as="geometry"/></mxCell><mxCell id="_Pil8NNrEzOsYqOW0OmC-22" value="exec" style="rounded=0;whiteSpace=wrap;html=1;fontSize=18;fontStyle=1" parent="1" vertex="1"><mxGeometry x="-50" y="424" width="60" height="30" as="geometry"/></mxCell><mxCell id="_Pil8NNrEzOsYqOW0OmC-23" value="fork" style="rounded=0;whiteSpace=wrap;html=1;fontSize=18;fontStyle=1" parent="1" vertex="1"><mxGeometry x="-120" y="454" width="60" height="30" as="geometry"/></mxCell><mxCell id="_Pil8NNrEzOsYqOW0OmC-24" value="" style="ellipse;whiteSpace=wrap;html=1;aspect=fixed;fontSize=18;strokeColor=none;" parent="1" vertex="1"><mxGeometry x="660" y="474" width="10" height="10" as="geometry"/></mxCell><mxCell id="_Pil8NNrEzOsYqOW0OmC-25" value="" style="ellipse;whiteSpace=wrap;html=1;aspect=fixed;fontSize=18;strokeColor=none;" parent="1" vertex="1"><mxGeometry x="630" y="474" width="10" height="10" as="geometry"/></mxCell><mxCell id="_Pil8NNrEzOsYqOW0OmC-26" value="" style="ellipse;whiteSpace=wrap;html=1;aspect=fixed;fontSize=18;strokeColor=none;" parent="1" vertex="1"><mxGeometry x="645" y="474" width="10" height="10" as="geometry"/></mxCell><mxCell id="_Pil8NNrEzOsYqOW0OmC-27" value="ls /etc&amp;nbsp;" style="shape=step;perimeter=stepPerimeter;whiteSpace=wrap;html=1;fixedSize=1;fontSize=18;flipH=1;" parent="1" vertex="1"><mxGeometry x="610" y="730" width="159" height="62" as="geometry"/></mxCell><mxCell id="_Pil8NNrEzOsYqOW0OmC-28" value="Step 4B of command line Processing: &lt;br&gt;&quot;Request the kernel to execute an external&quot; command with:&lt;br&gt;Executable: &lt;br&gt;&amp;nbsp; &amp;nbsp; &amp;nbsp; &amp;nbsp; /usr/bin/ls&lt;br&gt;Arguments:&lt;br&gt;&lt;span style=&quot;white-space: pre;&quot;&gt;&#9;&lt;/span&gt;1. /etc&lt;br&gt;Redirections:&lt;br&gt;&lt;span style=&quot;white-space: pre;&quot;&gt;&#9;&lt;/span&gt;None" style="rounded=1;whiteSpace=wrap;html=1;fontSize=18;align=left;verticalAlign=top;spacing=7;" parent="1" vertex="1"><mxGeometry x="250" y="145" width="490" height="200" as="geometry"/></mxCell></root></mxGraphModel></diagram><diagram id="JM7Sf8ArJk1MILTnpm7w" name="Step4B:forkexec"><mxGraphModel dx="1562" dy="806" grid="1" gridSize="10" guides="1" tooltips="1" connect="1" arrows="1" fold="1" page="1" pageScale="1" pageWidth="850" pageHeight="1100" math="0" shadow="0"><root><mxCell id="0"/><mxCell id="1" parent="0"/><mxCell id="SzhaHgGNl_n6ocFpjsco-1" value="The Computer -- The Hardware -- The Machine" style="rounded=0;whiteSpace=wrap;html=1;strokeWidth=4;verticalAlign=bottom;fontSize=40;fontStyle=1;fillColor=#CFE2F3;strokeColor=none;" parent="1" vertex="1"><mxGeometry x="-200" y="633" width="969" height="218" as="geometry"/></mxCell><mxCell id="SzhaHgGNl_n6ocFpjsco-2" value="" style="group" parent="1" vertex="1" connectable="0"><mxGeometry x="-190" y="644" width="467" height="160" as="geometry"/></mxCell><mxCell id="SzhaHgGNl_n6ocFpjsco-3" value="I/O Devices" style="rounded=1;whiteSpace=wrap;html=1;fillColor=#34A5DA;strokeColor=none;fontColor=#FFFFFF;verticalAlign=bottom;fontSize=40;" parent="SzhaHgGNl_n6ocFpjsco-2" vertex="1"><mxGeometry width="467" height="160" as="geometry"/></mxCell><mxCell id="SzhaHgGNl_n6ocFpjsco-4" value="Storage&lt;br style=&quot;font-size: 22px;&quot;&gt;Devices" style="shape=cylinder3;whiteSpace=wrap;html=1;boundedLbl=1;backgroundOutline=1;size=9.588235294117723;strokeWidth=3;fontSize=22;" parent="SzhaHgGNl_n6ocFpjsco-2" vertex="1"><mxGeometry x="280" y="20" width="160" height="80" as="geometry"/></mxCell><mxCell id="SzhaHgGNl_n6ocFpjsco-5" value="Communication&lt;br style=&quot;font-size: 22px;&quot;&gt;Devices" style="html=1;shadow=0;dashed=0;align=center;verticalAlign=middle;shape=mxgraph.arrows2.arrow;dy=0;dx=13.94;notch=0;strokeWidth=4;direction=south;fontSize=22;" parent="SzhaHgGNl_n6ocFpjsco-2" vertex="1"><mxGeometry x="30" y="20" width="230" height="80" as="geometry"/></mxCell><mxCell id="SzhaHgGNl_n6ocFpjsco-6" value="Main&lt;br&gt;Memory" style="rounded=0;whiteSpace=wrap;html=1;fontSize=40;fontColor=#FFFFFF;strokeWidth=3;fillColor=#34A5DA;strokeColor=none;" parent="1" vertex="1"><mxGeometry x="290" y="643" width="230" height="160" as="geometry"/></mxCell><mxCell id="SzhaHgGNl_n6ocFpjsco-7" value="CPU" style="ellipse;whiteSpace=wrap;html=1;fontSize=40;fontColor=#FFFFFF;strokeWidth=3;fillColor=#34A5DA;strokeColor=none;" parent="1" vertex="1"><mxGeometry x="530" y="643" width="230" height="160" as="geometry"/></mxCell><mxCell id="SzhaHgGNl_n6ocFpjsco-8" value="The world of running programs inside the Machine" style="rounded=0;whiteSpace=wrap;html=1;fillColor=#D9EAD3;dashed=1;strokeColor=#8ABE5E;strokeWidth=2;verticalAlign=bottom;fontSize=40;fontStyle=1" parent="1" vertex="1"><mxGeometry x="-200" y="100" width="969" height="530" as="geometry"/></mxCell><mxCell id="SzhaHgGNl_n6ocFpjsco-9" value="UNIX Kernel" style="ellipse;whiteSpace=wrap;html=1;fillColor=#8ABE5E;fontSize=40;fontColor=#FFFFFF;strokeColor=none;verticalAlign=bottom;" parent="1" vertex="1"><mxGeometry x="-135.5" y="380" width="840" height="192" as="geometry"/></mxCell><mxCell id="SzhaHgGNl_n6ocFpjsco-10" value="bash" style="ellipse;whiteSpace=wrap;html=1;fillColor=#8ABE5E;fontSize=32;fontColor=#FFFFFF;strokeColor=none;verticalAlign=middle;fontStyle=0" parent="1" vertex="1"><mxGeometry x="-150" y="110" width="170" height="102" as="geometry"/></mxCell><mxCell id="SzhaHgGNl_n6ocFpjsco-11" value="" style="endArrow=block;html=1;rounded=0;fontSize=18;strokeColor=#FF0000;strokeWidth=16;endFill=1;exitX=0.963;exitY=0.578;exitDx=0;exitDy=0;exitPerimeter=0;" parent="1" source="SzhaHgGNl_n6ocFpjsco-5" edge="1"><mxGeometry width="50" height="50" relative="1" as="geometry"><mxPoint x="-48" y="748" as="sourcePoint"/><mxPoint x="770" y="804" as="targetPoint"/><Array as="points"><mxPoint x="-63" y="810"/></Array></mxGeometry></mxCell><mxCell id="SzhaHgGNl_n6ocFpjsco-12" value="" style="endArrow=block;html=1;rounded=0;fontSize=18;strokeColor=#FF0000;strokeWidth=16;dashed=1;endFill=1;entryX=0.5;entryY=1;entryDx=0;entryDy=0;exitX=0.013;exitY=0.57;exitDx=0;exitDy=0;exitPerimeter=0;" parent="1" source="SzhaHgGNl_n6ocFpjsco-5" target="SzhaHgGNl_n6ocFpjsco-10" edge="1"><mxGeometry width="50" height="50" relative="1" as="geometry"><mxPoint x="-47" y="663" as="sourcePoint"/><mxPoint x="279" y="226" as="targetPoint"/></mxGeometry></mxCell><mxCell id="SzhaHgGNl_n6ocFpjsco-13" value="stat" style="rounded=0;whiteSpace=wrap;html=1;fontSize=18;fontStyle=1" parent="1" vertex="1"><mxGeometry x="580" y="430" width="60" height="30" as="geometry"/></mxCell><mxCell id="SzhaHgGNl_n6ocFpjsco-14" value="close" style="rounded=0;whiteSpace=wrap;html=1;fontSize=18;fontStyle=1" parent="1" vertex="1"><mxGeometry x="510" y="410" width="60" height="30" as="geometry"/></mxCell><mxCell id="SzhaHgGNl_n6ocFpjsco-15" value="open" style="rounded=0;whiteSpace=wrap;html=1;fontSize=18;fontStyle=1" parent="1" vertex="1"><mxGeometry x="440" y="394" width="60" height="30" as="geometry"/></mxCell><mxCell id="SzhaHgGNl_n6ocFpjsco-16" value="write" style="rounded=0;whiteSpace=wrap;html=1;fontSize=18;fontStyle=1" parent="1" vertex="1"><mxGeometry x="370" y="388" width="60" height="30" as="geometry"/></mxCell><mxCell id="SzhaHgGNl_n6ocFpjsco-17" value="read" style="rounded=0;whiteSpace=wrap;html=1;fontSize=18;fontStyle=1" parent="1" vertex="1"><mxGeometry x="300" y="388" width="60" height="30" as="geometry"/></mxCell><mxCell id="SzhaHgGNl_n6ocFpjsco-18" value="mmap" style="rounded=0;whiteSpace=wrap;html=1;fontSize=18;fontStyle=1" parent="1" vertex="1"><mxGeometry x="230" y="388" width="60" height="30" as="geometry"/></mxCell><mxCell id="SzhaHgGNl_n6ocFpjsco-19" value="brk" style="rounded=0;whiteSpace=wrap;html=1;fontSize=18;fontStyle=1" parent="1" vertex="1"><mxGeometry x="160" y="388" width="60" height="30" as="geometry"/></mxCell><mxCell id="SzhaHgGNl_n6ocFpjsco-20" value="exit" style="rounded=0;whiteSpace=wrap;html=1;fontSize=18;fontStyle=1" parent="1" vertex="1"><mxGeometry x="90" y="394" width="60" height="30" as="geometry"/></mxCell><mxCell id="SzhaHgGNl_n6ocFpjsco-21" value="wait" style="rounded=0;whiteSpace=wrap;html=1;fontSize=18;fontStyle=1" parent="1" vertex="1"><mxGeometry x="20" y="410" width="60" height="30" as="geometry"/></mxCell><mxCell id="SzhaHgGNl_n6ocFpjsco-22" value="exec" style="rounded=0;whiteSpace=wrap;html=1;fontSize=18;fontStyle=1" parent="1" vertex="1"><mxGeometry x="-50" y="424" width="60" height="30" as="geometry"/></mxCell><mxCell id="SzhaHgGNl_n6ocFpjsco-23" value="fork" style="rounded=0;whiteSpace=wrap;html=1;fontSize=18;fontStyle=1" parent="1" vertex="1"><mxGeometry x="-120" y="454" width="60" height="30" as="geometry"/></mxCell><mxCell id="SzhaHgGNl_n6ocFpjsco-24" value="" style="ellipse;whiteSpace=wrap;html=1;aspect=fixed;fontSize=18;strokeColor=none;" parent="1" vertex="1"><mxGeometry x="660" y="474" width="10" height="10" as="geometry"/></mxCell><mxCell id="SzhaHgGNl_n6ocFpjsco-25" value="" style="ellipse;whiteSpace=wrap;html=1;aspect=fixed;fontSize=18;strokeColor=none;" parent="1" vertex="1"><mxGeometry x="630" y="474" width="10" height="10" as="geometry"/></mxCell><mxCell id="SzhaHgGNl_n6ocFpjsco-26" value="" style="ellipse;whiteSpace=wrap;html=1;aspect=fixed;fontSize=18;strokeColor=none;" parent="1" vertex="1"><mxGeometry x="645" y="474" width="10" height="10" as="geometry"/></mxCell><mxCell id="SzhaHgGNl_n6ocFpjsco-27" value="ls /etc&amp;nbsp;" style="shape=step;perimeter=stepPerimeter;whiteSpace=wrap;html=1;fixedSize=1;fontSize=18;flipH=1;" parent="1" vertex="1"><mxGeometry x="610" y="730" width="159" height="62" as="geometry"/></mxCell><mxCell id="SzhaHgGNl_n6ocFpjsco-28" value="" style="endArrow=classic;startArrow=classic;html=1;rounded=0;fontSize=28;fontColor=#000000;strokeColor=#FFFFFF;strokeWidth=4;exitX=0.5;exitY=0;exitDx=0;exitDy=0;" parent="1" source="SzhaHgGNl_n6ocFpjsco-22" target="SzhaHgGNl_n6ocFpjsco-10" edge="1"><mxGeometry width="50" height="50" relative="1" as="geometry"><mxPoint x="-75" y="460" as="sourcePoint"/><mxPoint x="230" y="210" as="targetPoint"/><Array as="points"/></mxGeometry></mxCell><mxCell id="SzhaHgGNl_n6ocFpjsco-29" value="" style="endArrow=classic;startArrow=classic;html=1;rounded=0;fontSize=28;fontColor=#000000;strokeColor=#FFFFFF;strokeWidth=4;" parent="1" target="SzhaHgGNl_n6ocFpjsco-10" edge="1"><mxGeometry width="50" height="50" relative="1" as="geometry"><mxPoint x="-85" y="450" as="sourcePoint"/><mxPoint x="220" y="200" as="targetPoint"/><Array as="points"/></mxGeometry></mxCell><mxCell id="SzhaHgGNl_n6ocFpjsco-30" value="fork(...)&lt;br style=&quot;font-size: 20px;&quot;&gt;exec(&quot;/usr/bin/ls&quot;, args, env)" style="rounded=0;whiteSpace=wrap;html=1;align=left;strokeColor=none;fontSize=20;fontStyle=1;spacingRight=0;spacingBottom=0;spacingLeft=7;" parent="1" vertex="1"><mxGeometry x="-30" y="220" width="310" height="70" as="geometry"/></mxCell></root></mxGraphModel></diagram><diagram id="wFIbFNRBZk7QoS3QpjtU" name="Step4B:lsrunning"><mxGraphModel dx="1562" dy="806" grid="1" gridSize="10" guides="1" tooltips="1" connect="1" arrows="1" fold="1" page="1" pageScale="1" pageWidth="850" pageHeight="1100" math="0" shadow="0"><root><mxCell id="0"/><mxCell id="1" parent="0"/><mxCell id="K8OH29UH6qE2N-NoQBVT-1" value="The Computer -- The Hardware -- The Machine" style="rounded=0;whiteSpace=wrap;html=1;strokeWidth=4;verticalAlign=bottom;fontSize=40;fontStyle=1;fillColor=#CFE2F3;strokeColor=none;" parent="1" vertex="1"><mxGeometry x="-200" y="633" width="969" height="218" as="geometry"/></mxCell><mxCell id="K8OH29UH6qE2N-NoQBVT-2" value="" style="group" parent="1" vertex="1" connectable="0"><mxGeometry x="-190" y="644" width="467" height="160" as="geometry"/></mxCell><mxCell id="K8OH29UH6qE2N-NoQBVT-3" value="I/O Devices" style="rounded=1;whiteSpace=wrap;html=1;fillColor=#34A5DA;strokeColor=none;fontColor=#FFFFFF;verticalAlign=bottom;fontSize=40;" parent="K8OH29UH6qE2N-NoQBVT-2" vertex="1"><mxGeometry width="467" height="160" as="geometry"/></mxCell><mxCell id="K8OH29UH6qE2N-NoQBVT-4" value="Storage&lt;br style=&quot;font-size: 22px;&quot;&gt;Devices" style="shape=cylinder3;whiteSpace=wrap;html=1;boundedLbl=1;backgroundOutline=1;size=9.588235294117723;strokeWidth=3;fontSize=22;" parent="K8OH29UH6qE2N-NoQBVT-2" vertex="1"><mxGeometry x="280" y="20" width="160" height="80" as="geometry"/></mxCell><mxCell id="K8OH29UH6qE2N-NoQBVT-5" value="Communication&lt;br style=&quot;font-size: 22px;&quot;&gt;Devices" style="html=1;shadow=0;dashed=0;align=center;verticalAlign=middle;shape=mxgraph.arrows2.arrow;dy=0;dx=13.94;notch=0;strokeWidth=4;direction=south;fontSize=22;" parent="K8OH29UH6qE2N-NoQBVT-2" vertex="1"><mxGeometry x="30" y="20" width="230" height="80" as="geometry"/></mxCell><mxCell id="K8OH29UH6qE2N-NoQBVT-6" value="Main&lt;br&gt;Memory" style="rounded=0;whiteSpace=wrap;html=1;fontSize=40;fontColor=#FFFFFF;strokeWidth=3;fillColor=#34A5DA;strokeColor=none;" parent="1" vertex="1"><mxGeometry x="290" y="643" width="230" height="160" as="geometry"/></mxCell><mxCell id="K8OH29UH6qE2N-NoQBVT-7" value="CPU" style="ellipse;whiteSpace=wrap;html=1;fontSize=40;fontColor=#FFFFFF;strokeWidth=3;fillColor=#34A5DA;strokeColor=none;" parent="1" vertex="1"><mxGeometry x="530" y="643" width="230" height="160" as="geometry"/></mxCell><mxCell id="K8OH29UH6qE2N-NoQBVT-8" value="The world of running programs inside the Machine" style="rounded=0;whiteSpace=wrap;html=1;fillColor=#D9EAD3;dashed=1;strokeColor=#8ABE5E;strokeWidth=2;verticalAlign=bottom;fontSize=40;fontStyle=1" parent="1" vertex="1"><mxGeometry x="-200" y="100" width="969" height="530" as="geometry"/></mxCell><mxCell id="K8OH29UH6qE2N-NoQBVT-9" value="UNIX Kernel" style="ellipse;whiteSpace=wrap;html=1;fillColor=#8ABE5E;fontSize=40;fontColor=#FFFFFF;strokeColor=none;verticalAlign=bottom;" parent="1" vertex="1"><mxGeometry x="-135.5" y="380" width="840" height="192" as="geometry"/></mxCell><mxCell id="K8OH29UH6qE2N-NoQBVT-10" value="bash" style="ellipse;whiteSpace=wrap;html=1;fillColor=#8ABE5E;fontSize=32;fontColor=#FFFFFF;strokeColor=none;verticalAlign=middle;fontStyle=0" parent="1" vertex="1"><mxGeometry x="-150" y="110" width="170" height="102" as="geometry"/></mxCell><mxCell id="K8OH29UH6qE2N-NoQBVT-11" value="" style="endArrow=block;html=1;rounded=0;fontSize=18;strokeColor=#FF0000;strokeWidth=16;endFill=1;exitX=0.963;exitY=0.578;exitDx=0;exitDy=0;exitPerimeter=0;" parent="1" source="K8OH29UH6qE2N-NoQBVT-5" edge="1"><mxGeometry width="50" height="50" relative="1" as="geometry"><mxPoint x="-48" y="748" as="sourcePoint"/><mxPoint x="770" y="804" as="targetPoint"/><Array as="points"><mxPoint x="-63" y="810"/></Array></mxGeometry></mxCell><mxCell id="K8OH29UH6qE2N-NoQBVT-12" value="" style="endArrow=block;html=1;rounded=0;fontSize=18;strokeColor=#FF0000;strokeWidth=16;dashed=1;endFill=1;entryX=0.5;entryY=1;entryDx=0;entryDy=0;exitX=0.013;exitY=0.57;exitDx=0;exitDy=0;exitPerimeter=0;" parent="1" source="K8OH29UH6qE2N-NoQBVT-5" target="K8OH29UH6qE2N-NoQBVT-10" edge="1"><mxGeometry width="50" height="50" relative="1" as="geometry"><mxPoint x="-47" y="663" as="sourcePoint"/><mxPoint x="279" y="226" as="targetPoint"/></mxGeometry></mxCell><mxCell id="K8OH29UH6qE2N-NoQBVT-13" value="stat" style="rounded=0;whiteSpace=wrap;html=1;fontSize=18;fontStyle=1" parent="1" vertex="1"><mxGeometry x="580" y="430" width="60" height="30" as="geometry"/></mxCell><mxCell id="K8OH29UH6qE2N-NoQBVT-14" value="close" style="rounded=0;whiteSpace=wrap;html=1;fontSize=18;fontStyle=1" parent="1" vertex="1"><mxGeometry x="510" y="410" width="60" height="30" as="geometry"/></mxCell><mxCell id="K8OH29UH6qE2N-NoQBVT-15" value="open" style="rounded=0;whiteSpace=wrap;html=1;fontSize=18;fontStyle=1" parent="1" vertex="1"><mxGeometry x="440" y="394" width="60" height="30" as="geometry"/></mxCell><mxCell id="K8OH29UH6qE2N-NoQBVT-16" value="write" style="rounded=0;whiteSpace=wrap;html=1;fontSize=18;fontStyle=1" parent="1" vertex="1"><mxGeometry x="370" y="388" width="60" height="30" as="geometry"/></mxCell><mxCell id="K8OH29UH6qE2N-NoQBVT-17" value="read" style="rounded=0;whiteSpace=wrap;html=1;fontSize=18;fontStyle=1" parent="1" vertex="1"><mxGeometry x="300" y="388" width="60" height="30" as="geometry"/></mxCell><mxCell id="K8OH29UH6qE2N-NoQBVT-18" value="mmap" style="rounded=0;whiteSpace=wrap;html=1;fontSize=18;fontStyle=1" parent="1" vertex="1"><mxGeometry x="230" y="388" width="60" height="30" as="geometry"/></mxCell><mxCell id="K8OH29UH6qE2N-NoQBVT-19" value="brk" style="rounded=0;whiteSpace=wrap;html=1;fontSize=18;fontStyle=1" parent="1" vertex="1"><mxGeometry x="160" y="388" width="60" height="30" as="geometry"/></mxCell><mxCell id="K8OH29UH6qE2N-NoQBVT-20" value="exit" style="rounded=0;whiteSpace=wrap;html=1;fontSize=18;fontStyle=1" parent="1" vertex="1"><mxGeometry x="90" y="394" width="60" height="30" as="geometry"/></mxCell><mxCell id="K8OH29UH6qE2N-NoQBVT-21" value="wait" style="rounded=0;whiteSpace=wrap;html=1;fontSize=18;fontStyle=1" parent="1" vertex="1"><mxGeometry x="20" y="410" width="60" height="30" as="geometry"/></mxCell><mxCell id="K8OH29UH6qE2N-NoQBVT-22" value="exec" style="rounded=0;whiteSpace=wrap;html=1;fontSize=18;fontStyle=1" parent="1" vertex="1"><mxGeometry x="-50" y="424" width="60" height="30" as="geometry"/></mxCell><mxCell id="K8OH29UH6qE2N-NoQBVT-23" value="fork" style="rounded=0;whiteSpace=wrap;html=1;fontSize=18;fontStyle=1" parent="1" vertex="1"><mxGeometry x="-120" y="454" width="60" height="30" as="geometry"/></mxCell><mxCell id="K8OH29UH6qE2N-NoQBVT-24" value="" style="ellipse;whiteSpace=wrap;html=1;aspect=fixed;fontSize=18;strokeColor=none;" parent="1" vertex="1"><mxGeometry x="660" y="474" width="10" height="10" as="geometry"/></mxCell><mxCell id="K8OH29UH6qE2N-NoQBVT-25" value="" style="ellipse;whiteSpace=wrap;html=1;aspect=fixed;fontSize=18;strokeColor=none;" parent="1" vertex="1"><mxGeometry x="630" y="474" width="10" height="10" as="geometry"/></mxCell><mxCell id="K8OH29UH6qE2N-NoQBVT-26" value="" style="ellipse;whiteSpace=wrap;html=1;aspect=fixed;fontSize=18;strokeColor=none;" parent="1" vertex="1"><mxGeometry x="645" y="474" width="10" height="10" as="geometry"/></mxCell><mxCell id="K8OH29UH6qE2N-NoQBVT-27" value="ls /etc&amp;nbsp;" style="shape=step;perimeter=stepPerimeter;whiteSpace=wrap;html=1;fixedSize=1;fontSize=18;flipH=1;" parent="1" vertex="1"><mxGeometry x="610" y="730" width="159" height="62" as="geometry"/></mxCell><mxCell id="K8OH29UH6qE2N-NoQBVT-28" value="/usr/bin/ls" style="ellipse;whiteSpace=wrap;html=1;fillColor=#8ABE5E;fontSize=32;fontColor=#FFFFFF;strokeColor=none;verticalAlign=middle;fontStyle=0" parent="1" vertex="1"><mxGeometry x="50" y="170" width="170" height="102" as="geometry"/></mxCell><mxCell id="K8OH29UH6qE2N-NoQBVT-29" value="&lt;font color=&quot;#ffffff&quot;&gt;args&lt;/font&gt;" style="rounded=0;whiteSpace=wrap;html=1;fontSize=20;fillColor=#8ABE5E;strokeColor=none;" parent="1" vertex="1"><mxGeometry x="61" y="132" width="70" height="60" as="geometry"/></mxCell><mxCell id="K8OH29UH6qE2N-NoQBVT-30" value="&lt;font color=&quot;#ffffff&quot;&gt;env&lt;/font&gt;" style="rounded=0;whiteSpace=wrap;html=1;fontSize=20;fillColor=#8ABE5E;strokeColor=none;" parent="1" vertex="1"><mxGeometry x="134" y="131" width="70" height="60" as="geometry"/></mxCell><mxCell id="K8OH29UH6qE2N-NoQBVT-31" value="" style="endArrow=block;html=1;rounded=0;fontSize=18;strokeColor=#FF0000;strokeWidth=16;dashed=1;endFill=1;entryX=0.5;entryY=1;entryDx=0;entryDy=0;" parent="1" edge="1"><mxGeometry width="50" height="50" relative="1" as="geometry"><mxPoint x="-60" y="660" as="sourcePoint"/><mxPoint x="130.0999999999999" y="260" as="targetPoint"/></mxGeometry></mxCell></root></mxGraphModel></diagram><diagram id="DQz4ZREy3vXyZwswjKpc" name="Step5:waitcalled"><mxGraphModel dx="1562" dy="806" grid="1" gridSize="10" guides="1" tooltips="1" connect="1" arrows="1" fold="1" page="1" pageScale="1" pageWidth="850" pageHeight="1100" math="0" shadow="0"><root><mxCell id="0"/><mxCell id="1" parent="0"/><mxCell id="7JNqv8V2uNI2zzRz5iNZ-1" value="The Computer -- The Hardware -- The Machine" style="rounded=0;whiteSpace=wrap;html=1;strokeWidth=4;verticalAlign=bottom;fontSize=40;fontStyle=1;fillColor=#CFE2F3;strokeColor=none;" parent="1" vertex="1"><mxGeometry x="-200" y="633" width="969" height="218" as="geometry"/></mxCell><mxCell id="7JNqv8V2uNI2zzRz5iNZ-2" value="" style="group" parent="1" vertex="1" connectable="0"><mxGeometry x="-190" y="644" width="467" height="160" as="geometry"/></mxCell><mxCell id="7JNqv8V2uNI2zzRz5iNZ-3" value="I/O Devices" style="rounded=1;whiteSpace=wrap;html=1;fillColor=#34A5DA;strokeColor=none;fontColor=#FFFFFF;verticalAlign=bottom;fontSize=40;" parent="7JNqv8V2uNI2zzRz5iNZ-2" vertex="1"><mxGeometry width="467" height="160" as="geometry"/></mxCell><mxCell id="7JNqv8V2uNI2zzRz5iNZ-4" value="Storage&lt;br style=&quot;font-size: 22px;&quot;&gt;Devices" style="shape=cylinder3;whiteSpace=wrap;html=1;boundedLbl=1;backgroundOutline=1;size=9.588235294117723;strokeWidth=3;fontSize=22;" parent="7JNqv8V2uNI2zzRz5iNZ-2" vertex="1"><mxGeometry x="280" y="20" width="160" height="80" as="geometry"/></mxCell><mxCell id="7JNqv8V2uNI2zzRz5iNZ-5" value="Communication&lt;br style=&quot;font-size: 22px;&quot;&gt;Devices" style="html=1;shadow=0;dashed=0;align=center;verticalAlign=middle;shape=mxgraph.arrows2.arrow;dy=0;dx=13.94;notch=0;strokeWidth=4;direction=south;fontSize=22;" parent="7JNqv8V2uNI2zzRz5iNZ-2" vertex="1"><mxGeometry x="30" y="20" width="230" height="80" as="geometry"/></mxCell><mxCell id="7JNqv8V2uNI2zzRz5iNZ-6" value="Main&lt;br&gt;Memory" style="rounded=0;whiteSpace=wrap;html=1;fontSize=40;fontColor=#FFFFFF;strokeWidth=3;fillColor=#34A5DA;strokeColor=none;" parent="1" vertex="1"><mxGeometry x="290" y="643" width="230" height="160" as="geometry"/></mxCell><mxCell id="7JNqv8V2uNI2zzRz5iNZ-7" value="CPU" style="ellipse;whiteSpace=wrap;html=1;fontSize=40;fontColor=#FFFFFF;strokeWidth=3;fillColor=#34A5DA;strokeColor=none;" parent="1" vertex="1"><mxGeometry x="530" y="643" width="230" height="160" as="geometry"/></mxCell><mxCell id="7JNqv8V2uNI2zzRz5iNZ-8" value="The world of running programs inside the Machine" style="rounded=0;whiteSpace=wrap;html=1;fillColor=#D9EAD3;dashed=1;strokeColor=#8ABE5E;strokeWidth=2;verticalAlign=bottom;fontSize=40;fontStyle=1" parent="1" vertex="1"><mxGeometry x="-200" y="100" width="969" height="530" as="geometry"/></mxCell><mxCell id="7JNqv8V2uNI2zzRz5iNZ-9" value="UNIX Kernel" style="ellipse;whiteSpace=wrap;html=1;fillColor=#8ABE5E;fontSize=40;fontColor=#FFFFFF;strokeColor=none;verticalAlign=bottom;" parent="1" vertex="1"><mxGeometry x="-135.5" y="380" width="840" height="192" as="geometry"/></mxCell><mxCell id="7JNqv8V2uNI2zzRz5iNZ-10" value="bash" style="ellipse;whiteSpace=wrap;html=1;fillColor=#8ABE5E;fontSize=32;fontColor=#FFFFFF;strokeColor=none;verticalAlign=middle;fontStyle=0" parent="1" vertex="1"><mxGeometry x="-150" y="110" width="170" height="102" as="geometry"/></mxCell><mxCell id="7JNqv8V2uNI2zzRz5iNZ-11" value="" style="endArrow=block;html=1;rounded=0;fontSize=18;strokeColor=#FF0000;strokeWidth=16;endFill=1;exitX=0.963;exitY=0.578;exitDx=0;exitDy=0;exitPerimeter=0;" parent="1" source="7JNqv8V2uNI2zzRz5iNZ-5" edge="1"><mxGeometry width="50" height="50" relative="1" as="geometry"><mxPoint x="-48" y="748" as="sourcePoint"/><mxPoint x="770" y="804" as="targetPoint"/><Array as="points"><mxPoint x="-63" y="810"/></Array></mxGeometry></mxCell><mxCell id="7JNqv8V2uNI2zzRz5iNZ-12" value="" style="endArrow=block;html=1;rounded=0;fontSize=18;strokeColor=#FF0000;strokeWidth=16;dashed=1;endFill=1;entryX=0.5;entryY=1;entryDx=0;entryDy=0;exitX=0.013;exitY=0.57;exitDx=0;exitDy=0;exitPerimeter=0;" parent="1" source="7JNqv8V2uNI2zzRz5iNZ-5" target="7JNqv8V2uNI2zzRz5iNZ-10" edge="1"><mxGeometry width="50" height="50" relative="1" as="geometry"><mxPoint x="-47" y="663" as="sourcePoint"/><mxPoint x="279" y="226" as="targetPoint"/></mxGeometry></mxCell><mxCell id="7JNqv8V2uNI2zzRz5iNZ-13" value="stat" style="rounded=0;whiteSpace=wrap;html=1;fontSize=18;fontStyle=1" parent="1" vertex="1"><mxGeometry x="580" y="430" width="60" height="30" as="geometry"/></mxCell><mxCell id="7JNqv8V2uNI2zzRz5iNZ-14" value="close" style="rounded=0;whiteSpace=wrap;html=1;fontSize=18;fontStyle=1" parent="1" vertex="1"><mxGeometry x="510" y="410" width="60" height="30" as="geometry"/></mxCell><mxCell id="7JNqv8V2uNI2zzRz5iNZ-15" value="open" style="rounded=0;whiteSpace=wrap;html=1;fontSize=18;fontStyle=1" parent="1" vertex="1"><mxGeometry x="440" y="394" width="60" height="30" as="geometry"/></mxCell><mxCell id="7JNqv8V2uNI2zzRz5iNZ-16" value="write" style="rounded=0;whiteSpace=wrap;html=1;fontSize=18;fontStyle=1" parent="1" vertex="1"><mxGeometry x="370" y="388" width="60" height="30" as="geometry"/></mxCell><mxCell id="7JNqv8V2uNI2zzRz5iNZ-17" value="read" style="rounded=0;whiteSpace=wrap;html=1;fontSize=18;fontStyle=1" parent="1" vertex="1"><mxGeometry x="300" y="388" width="60" height="30" as="geometry"/></mxCell><mxCell id="7JNqv8V2uNI2zzRz5iNZ-18" value="mmap" style="rounded=0;whiteSpace=wrap;html=1;fontSize=18;fontStyle=1" parent="1" vertex="1"><mxGeometry x="230" y="388" width="60" height="30" as="geometry"/></mxCell><mxCell id="7JNqv8V2uNI2zzRz5iNZ-19" value="brk" style="rounded=0;whiteSpace=wrap;html=1;fontSize=18;fontStyle=1" parent="1" vertex="1"><mxGeometry x="160" y="388" width="60" height="30" as="geometry"/></mxCell><mxCell id="7JNqv8V2uNI2zzRz5iNZ-20" value="exit" style="rounded=0;whiteSpace=wrap;html=1;fontSize=18;fontStyle=1" parent="1" vertex="1"><mxGeometry x="90" y="394" width="60" height="30" as="geometry"/></mxCell><mxCell id="7JNqv8V2uNI2zzRz5iNZ-21" value="wait" style="rounded=0;whiteSpace=wrap;html=1;fontSize=18;fontStyle=1" parent="1" vertex="1"><mxGeometry x="20" y="410" width="60" height="30" as="geometry"/></mxCell><mxCell id="7JNqv8V2uNI2zzRz5iNZ-22" value="exec" style="rounded=0;whiteSpace=wrap;html=1;fontSize=18;fontStyle=1" parent="1" vertex="1"><mxGeometry x="-50" y="424" width="60" height="30" as="geometry"/></mxCell><mxCell id="7JNqv8V2uNI2zzRz5iNZ-23" value="fork" style="rounded=0;whiteSpace=wrap;html=1;fontSize=18;fontStyle=1" parent="1" vertex="1"><mxGeometry x="-120" y="454" width="60" height="30" as="geometry"/></mxCell><mxCell id="7JNqv8V2uNI2zzRz5iNZ-24" value="" style="ellipse;whiteSpace=wrap;html=1;aspect=fixed;fontSize=18;strokeColor=none;" parent="1" vertex="1"><mxGeometry x="660" y="474" width="10" height="10" as="geometry"/></mxCell><mxCell id="7JNqv8V2uNI2zzRz5iNZ-25" value="" style="ellipse;whiteSpace=wrap;html=1;aspect=fixed;fontSize=18;strokeColor=none;" parent="1" vertex="1"><mxGeometry x="630" y="474" width="10" height="10" as="geometry"/></mxCell><mxCell id="7JNqv8V2uNI2zzRz5iNZ-26" value="" style="ellipse;whiteSpace=wrap;html=1;aspect=fixed;fontSize=18;strokeColor=none;" parent="1" vertex="1"><mxGeometry x="645" y="474" width="10" height="10" as="geometry"/></mxCell><mxCell id="7JNqv8V2uNI2zzRz5iNZ-27" value="/usr/bin/ls" style="ellipse;whiteSpace=wrap;html=1;fillColor=#8ABE5E;fontSize=32;fontColor=#FFFFFF;strokeColor=none;verticalAlign=middle;fontStyle=0" parent="1" vertex="1"><mxGeometry x="50" y="170" width="170" height="102" as="geometry"/></mxCell><mxCell id="7JNqv8V2uNI2zzRz5iNZ-28" value="&lt;font color=&quot;#ffffff&quot;&gt;args&lt;/font&gt;" style="rounded=0;whiteSpace=wrap;html=1;fontSize=20;fillColor=#8ABE5E;strokeColor=none;" parent="1" vertex="1"><mxGeometry x="61" y="132" width="70" height="60" as="geometry"/></mxCell><mxCell id="7JNqv8V2uNI2zzRz5iNZ-29" value="&lt;font color=&quot;#ffffff&quot;&gt;env&lt;/font&gt;" style="rounded=0;whiteSpace=wrap;html=1;fontSize=20;fillColor=#8ABE5E;strokeColor=none;" parent="1" vertex="1"><mxGeometry x="134" y="131" width="70" height="60" as="geometry"/></mxCell><mxCell id="7JNqv8V2uNI2zzRz5iNZ-30" value="" style="endArrow=block;html=1;rounded=0;fontSize=18;strokeColor=#FF0000;strokeWidth=16;dashed=1;endFill=1;entryX=0.5;entryY=1;entryDx=0;entryDy=0;" parent="1" edge="1"><mxGeometry width="50" height="50" relative="1" as="geometry"><mxPoint x="-60" y="660" as="sourcePoint"/><mxPoint x="130.0999999999999" y="260" as="targetPoint"/></mxGeometry></mxCell><mxCell id="7JNqv8V2uNI2zzRz5iNZ-31" value="" style="endArrow=none;startArrow=classic;html=1;rounded=0;fontSize=28;fontColor=#000000;strokeColor=#FFFFFF;strokeWidth=4;endFill=0;" parent="1" source="7JNqv8V2uNI2zzRz5iNZ-21" edge="1"><mxGeometry width="50" height="50" relative="1" as="geometry"><mxPoint x="-10" y="434" as="sourcePoint"/><mxPoint x="-46.31938859344518" y="221.73335110942025" as="targetPoint"/><Array as="points"/></mxGeometry></mxCell><mxCell id="7JNqv8V2uNI2zzRz5iNZ-32" value="wait(...)" style="rounded=0;whiteSpace=wrap;html=1;align=left;strokeColor=none;fontSize=20;fontStyle=1;spacingRight=0;spacingBottom=0;spacingLeft=7;" parent="1" vertex="1"><mxGeometry x="-160" y="200" width="100" height="70" as="geometry"/></mxCell><mxCell id="7JNqv8V2uNI2zzRz5iNZ-33" value="Step 5 of command line processing:&lt;br&gt;&amp;nbsp; A) The shell calls the 'wait' system call to pause until the new process created to run '/usr/bin/ls' has exited.&lt;br&gt;&amp;nbsp; B) In the mean time Step 4 has caused the '/usr/bin/ls' file to have been started as a new process.&amp;nbsp; It will go on to use the kernel calls, as needed, to get the contents of the '/etc' directory and print the listing to its standard output stream.&amp;nbsp;&lt;br&gt;" style="rounded=1;whiteSpace=wrap;html=1;fontSize=18;align=left;verticalAlign=top;spacing=7;spacingLeft=6;" parent="1" vertex="1"><mxGeometry x="250" y="145" width="490" height="200" as="geometry"/></mxCell><mxCell id="7JNqv8V2uNI2zzRz5iNZ-34" value="list of files and directories &lt;br&gt;within /etc" style="shape=step;perimeter=stepPerimeter;whiteSpace=wrap;html=1;fixedSize=1;fontSize=18;flipH=0;" parent="1" vertex="1"><mxGeometry x="590" y="680" width="169" height="102" as="geometry"/></mxCell></root></mxGraphModel></diagram><diagram id="cpwsTvUA8BrBkyUL-fs-" name="Step5:exitcall"><mxGraphModel dx="1990" dy="922" grid="1" gridSize="10" guides="1" tooltips="1" connect="1" arrows="1" fold="1" page="1" pageScale="1" pageWidth="850" pageHeight="1100" math="0" shadow="0"><root><mxCell id="0"/><mxCell id="1" parent="0"/><mxCell id="2FCyr4OTVJ57-2zB5ILE-1" value="The Computer -- The Hardware -- The Machine" style="rounded=0;whiteSpace=wrap;html=1;strokeWidth=4;verticalAlign=bottom;fontSize=40;fontStyle=1;fillColor=#CFE2F3;strokeColor=none;" vertex="1" parent="1"><mxGeometry x="-200" y="633" width="969" height="218" as="geometry"/></mxCell><mxCell id="2FCyr4OTVJ57-2zB5ILE-2" value="" style="group" vertex="1" connectable="0" parent="1"><mxGeometry x="-190" y="644" width="467" height="160" as="geometry"/></mxCell><mxCell id="2FCyr4OTVJ57-2zB5ILE-3" value="I/O Devices" style="rounded=1;whiteSpace=wrap;html=1;fillColor=#34A5DA;strokeColor=none;fontColor=#FFFFFF;verticalAlign=bottom;fontSize=40;" vertex="1" parent="2FCyr4OTVJ57-2zB5ILE-2"><mxGeometry width="467" height="160" as="geometry"/></mxCell><mxCell id="2FCyr4OTVJ57-2zB5ILE-4" value="Storage&lt;br style=&quot;font-size: 22px;&quot;&gt;Devices" style="shape=cylinder3;whiteSpace=wrap;html=1;boundedLbl=1;backgroundOutline=1;size=9.588235294117723;strokeWidth=3;fontSize=22;" vertex="1" parent="2FCyr4OTVJ57-2zB5ILE-2"><mxGeometry x="280" y="20" width="160" height="80" as="geometry"/></mxCell><mxCell id="2FCyr4OTVJ57-2zB5ILE-5" value="Communication&lt;br style=&quot;font-size: 22px;&quot;&gt;Devices" style="html=1;shadow=0;dashed=0;align=center;verticalAlign=middle;shape=mxgraph.arrows2.arrow;dy=0;dx=13.94;notch=0;strokeWidth=4;direction=south;fontSize=22;" vertex="1" parent="2FCyr4OTVJ57-2zB5ILE-2"><mxGeometry x="30" y="20" width="230" height="80" as="geometry"/></mxCell><mxCell id="2FCyr4OTVJ57-2zB5ILE-6" value="Main&lt;br&gt;Memory" style="rounded=0;whiteSpace=wrap;html=1;fontSize=40;fontColor=#FFFFFF;strokeWidth=3;fillColor=#34A5DA;strokeColor=none;" vertex="1" parent="1"><mxGeometry x="290" y="643" width="230" height="160" as="geometry"/></mxCell><mxCell id="2FCyr4OTVJ57-2zB5ILE-7" value="CPU" style="ellipse;whiteSpace=wrap;html=1;fontSize=40;fontColor=#FFFFFF;strokeWidth=3;fillColor=#34A5DA;strokeColor=none;" vertex="1" parent="1"><mxGeometry x="530" y="643" width="230" height="160" as="geometry"/></mxCell><mxCell id="2FCyr4OTVJ57-2zB5ILE-8" value="The world of running programs inside the Machine" style="rounded=0;whiteSpace=wrap;html=1;fillColor=#D9EAD3;dashed=1;strokeColor=#8ABE5E;strokeWidth=2;verticalAlign=bottom;fontSize=40;fontStyle=1" vertex="1" parent="1"><mxGeometry x="-200" y="100" width="969" height="530" as="geometry"/></mxCell><mxCell id="2FCyr4OTVJ57-2zB5ILE-9" value="UNIX Kernel" style="ellipse;whiteSpace=wrap;html=1;fillColor=#8ABE5E;fontSize=40;fontColor=#FFFFFF;strokeColor=none;verticalAlign=bottom;" vertex="1" parent="1"><mxGeometry x="-135.5" y="380" width="840" height="192" as="geometry"/></mxCell><mxCell id="2FCyr4OTVJ57-2zB5ILE-10" value="bash" style="ellipse;whiteSpace=wrap;html=1;fillColor=#8ABE5E;fontSize=32;fontColor=#FFFFFF;strokeColor=none;verticalAlign=middle;fontStyle=0" vertex="1" parent="1"><mxGeometry x="-150" y="110" width="170" height="102" as="geometry"/></mxCell><mxCell id="2FCyr4OTVJ57-2zB5ILE-11" value="" style="endArrow=block;html=1;rounded=0;fontSize=18;strokeColor=#FF0000;strokeWidth=16;endFill=1;exitX=0.963;exitY=0.578;exitDx=0;exitDy=0;exitPerimeter=0;" edge="1" parent="1" source="2FCyr4OTVJ57-2zB5ILE-5"><mxGeometry width="50" height="50" relative="1" as="geometry"><mxPoint x="-48" y="748" as="sourcePoint"/><mxPoint x="770" y="804" as="targetPoint"/><Array as="points"><mxPoint x="-63" y="810"/></Array></mxGeometry></mxCell><mxCell id="2FCyr4OTVJ57-2zB5ILE-12" value="" style="endArrow=block;html=1;rounded=0;fontSize=18;strokeColor=#FF0000;strokeWidth=16;dashed=1;endFill=1;entryX=0.5;entryY=1;entryDx=0;entryDy=0;exitX=0.013;exitY=0.57;exitDx=0;exitDy=0;exitPerimeter=0;" edge="1" parent="1" source="2FCyr4OTVJ57-2zB5ILE-5" target="2FCyr4OTVJ57-2zB5ILE-10"><mxGeometry width="50" height="50" relative="1" as="geometry"><mxPoint x="-47" y="663" as="sourcePoint"/><mxPoint x="279" y="226" as="targetPoint"/></mxGeometry></mxCell><mxCell id="2FCyr4OTVJ57-2zB5ILE-13" value="stat" style="rounded=0;whiteSpace=wrap;html=1;fontSize=18;fontStyle=1" vertex="1" parent="1"><mxGeometry x="580" y="430" width="60" height="30" as="geometry"/></mxCell><mxCell id="2FCyr4OTVJ57-2zB5ILE-14" value="close" style="rounded=0;whiteSpace=wrap;html=1;fontSize=18;fontStyle=1" vertex="1" parent="1"><mxGeometry x="510" y="410" width="60" height="30" as="geometry"/></mxCell><mxCell id="2FCyr4OTVJ57-2zB5ILE-15" value="open" style="rounded=0;whiteSpace=wrap;html=1;fontSize=18;fontStyle=1" vertex="1" parent="1"><mxGeometry x="440" y="394" width="60" height="30" as="geometry"/></mxCell><mxCell id="2FCyr4OTVJ57-2zB5ILE-16" value="write" style="rounded=0;whiteSpace=wrap;html=1;fontSize=18;fontStyle=1" vertex="1" parent="1"><mxGeometry x="370" y="388" width="60" height="30" as="geometry"/></mxCell><mxCell id="2FCyr4OTVJ57-2zB5ILE-17" value="read" style="rounded=0;whiteSpace=wrap;html=1;fontSize=18;fontStyle=1" vertex="1" parent="1"><mxGeometry x="300" y="388" width="60" height="30" as="geometry"/></mxCell><mxCell id="2FCyr4OTVJ57-2zB5ILE-18" value="mmap" style="rounded=0;whiteSpace=wrap;html=1;fontSize=18;fontStyle=1" vertex="1" parent="1"><mxGeometry x="230" y="388" width="60" height="30" as="geometry"/></mxCell><mxCell id="2FCyr4OTVJ57-2zB5ILE-19" value="brk" style="rounded=0;whiteSpace=wrap;html=1;fontSize=18;fontStyle=1" vertex="1" parent="1"><mxGeometry x="160" y="388" width="60" height="30" as="geometry"/></mxCell><mxCell id="2FCyr4OTVJ57-2zB5ILE-20" value="exit" style="rounded=0;whiteSpace=wrap;html=1;fontSize=18;fontStyle=1" vertex="1" parent="1"><mxGeometry x="90" y="394" width="60" height="30" as="geometry"/></mxCell><mxCell id="2FCyr4OTVJ57-2zB5ILE-21" value="wait" style="rounded=0;whiteSpace=wrap;html=1;fontSize=18;fontStyle=1" vertex="1" parent="1"><mxGeometry x="20" y="410" width="60" height="30" as="geometry"/></mxCell><mxCell id="2FCyr4OTVJ57-2zB5ILE-22" value="exec" style="rounded=0;whiteSpace=wrap;html=1;fontSize=18;fontStyle=1" vertex="1" parent="1"><mxGeometry x="-50" y="424" width="60" height="30" as="geometry"/></mxCell><mxCell id="2FCyr4OTVJ57-2zB5ILE-23" value="fork" style="rounded=0;whiteSpace=wrap;html=1;fontSize=18;fontStyle=1" vertex="1" parent="1"><mxGeometry x="-120" y="454" width="60" height="30" as="geometry"/></mxCell><mxCell id="2FCyr4OTVJ57-2zB5ILE-24" value="" style="ellipse;whiteSpace=wrap;html=1;aspect=fixed;fontSize=18;strokeColor=none;" vertex="1" parent="1"><mxGeometry x="660" y="474" width="10" height="10" as="geometry"/></mxCell><mxCell id="2FCyr4OTVJ57-2zB5ILE-25" value="" style="ellipse;whiteSpace=wrap;html=1;aspect=fixed;fontSize=18;strokeColor=none;" vertex="1" parent="1"><mxGeometry x="630" y="474" width="10" height="10" as="geometry"/></mxCell><mxCell id="2FCyr4OTVJ57-2zB5ILE-26" value="" style="ellipse;whiteSpace=wrap;html=1;aspect=fixed;fontSize=18;strokeColor=none;" vertex="1" parent="1"><mxGeometry x="645" y="474" width="10" height="10" as="geometry"/></mxCell><mxCell id="2FCyr4OTVJ57-2zB5ILE-27" value="/usr/bin/ls" style="ellipse;whiteSpace=wrap;html=1;fillColor=#8ABE5E;fontSize=32;fontColor=#FFFFFF;strokeColor=none;verticalAlign=middle;fontStyle=0" vertex="1" parent="1"><mxGeometry x="50" y="170" width="170" height="102" as="geometry"/></mxCell><mxCell id="2FCyr4OTVJ57-2zB5ILE-28" value="&lt;font color=&quot;#ffffff&quot;&gt;args&lt;/font&gt;" style="rounded=0;whiteSpace=wrap;html=1;fontSize=20;fillColor=#8ABE5E;strokeColor=none;" vertex="1" parent="1"><mxGeometry x="61" y="132" width="70" height="60" as="geometry"/></mxCell><mxCell id="2FCyr4OTVJ57-2zB5ILE-29" value="&lt;font color=&quot;#ffffff&quot;&gt;env&lt;/font&gt;" style="rounded=0;whiteSpace=wrap;html=1;fontSize=20;fillColor=#8ABE5E;strokeColor=none;" vertex="1" parent="1"><mxGeometry x="134" y="131" width="70" height="60" as="geometry"/></mxCell><mxCell id="2FCyr4OTVJ57-2zB5ILE-30" value="" style="endArrow=block;html=1;rounded=0;fontSize=18;strokeColor=#FF0000;strokeWidth=16;dashed=1;endFill=1;entryX=0.5;entryY=1;entryDx=0;entryDy=0;" edge="1" parent="1"><mxGeometry width="50" height="50" relative="1" as="geometry"><mxPoint x="-60" y="660" as="sourcePoint"/><mxPoint x="130.0999999999999" y="260" as="targetPoint"/></mxGeometry></mxCell><mxCell id="2FCyr4OTVJ57-2zB5ILE-33" value="Step 5 of command line processing:&lt;br&gt;&amp;nbsp; When the ls program is finished it will call the exit system call passing the exit its exit status back to the kernel." style="rounded=1;whiteSpace=wrap;html=1;fontSize=18;align=left;verticalAlign=top;spacing=7;spacingLeft=6;" vertex="1" parent="1"><mxGeometry x="250" y="145" width="490" height="200" as="geometry"/></mxCell><mxCell id="2FCyr4OTVJ57-2zB5ILE-34" value="" style="endArrow=none;startArrow=classic;html=1;rounded=0;fontSize=28;fontColor=#000000;strokeColor=#FFFFFF;strokeWidth=4;endFill=0;exitX=0.5;exitY=0;exitDx=0;exitDy=0;" edge="1" parent="1" source="2FCyr4OTVJ57-2zB5ILE-20" target="2FCyr4OTVJ57-2zB5ILE-27"><mxGeometry width="50" height="50" relative="1" as="geometry"><mxPoint x="62.89214026606305" y="430" as="sourcePoint"/><mxPoint x="-26.319388593445183" y="241.73335110942025" as="targetPoint"/><Array as="points"/></mxGeometry></mxCell><mxCell id="dJUASV6z-isVYlMvNCRv-1" value="" style="endArrow=none;startArrow=classic;html=1;rounded=0;fontSize=28;fontColor=#000000;strokeColor=#FFFFFF;strokeWidth=4;endFill=0;" edge="1" parent="1"><mxGeometry width="50" height="50" relative="1" as="geometry"><mxPoint x="42.892140266062825" y="410" as="sourcePoint"/><mxPoint x="-46.31938859344518" y="221.73335110942025" as="targetPoint"/><Array as="points"/></mxGeometry></mxCell><mxCell id="dJUASV6z-isVYlMvNCRv-2" value="wait(...)" style="rounded=0;whiteSpace=wrap;html=1;align=left;strokeColor=none;fontSize=20;fontStyle=1;spacingRight=0;spacingBottom=0;spacingLeft=7;" vertex="1" parent="1"><mxGeometry x="-160" y="200" width="100" height="70" as="geometry"/></mxCell></root></mxGraphModel></diagram><diagram id="WjDRLn7ni6T9CL1SysXk" name="Step5:waitreturn"><mxGraphModel dx="1990" dy="922" grid="1" gridSize="10" guides="1" tooltips="1" connect="1" arrows="1" fold="1" page="1" pageScale="1" pageWidth="850" pageHeight="1100" math="0" shadow="0"><root><mxCell id="0"/><mxCell id="1" parent="0"/><mxCell id="7Pi-BUBpBBkivoBTZlkI-1" value="The Computer -- The Hardware -- The Machine" style="rounded=0;whiteSpace=wrap;html=1;strokeWidth=4;verticalAlign=bottom;fontSize=40;fontStyle=1;fillColor=#CFE2F3;strokeColor=none;" vertex="1" parent="1"><mxGeometry x="-200" y="633" width="969" height="218" as="geometry"/></mxCell><mxCell id="7Pi-BUBpBBkivoBTZlkI-2" value="" style="group" vertex="1" connectable="0" parent="1"><mxGeometry x="-190" y="644" width="467" height="160" as="geometry"/></mxCell><mxCell id="7Pi-BUBpBBkivoBTZlkI-3" value="I/O Devices" style="rounded=1;whiteSpace=wrap;html=1;fillColor=#34A5DA;strokeColor=none;fontColor=#FFFFFF;verticalAlign=bottom;fontSize=40;" vertex="1" parent="7Pi-BUBpBBkivoBTZlkI-2"><mxGeometry width="467" height="160" as="geometry"/></mxCell><mxCell id="7Pi-BUBpBBkivoBTZlkI-4" value="Storage&lt;br style=&quot;font-size: 22px;&quot;&gt;Devices" style="shape=cylinder3;whiteSpace=wrap;html=1;boundedLbl=1;backgroundOutline=1;size=9.588235294117723;strokeWidth=3;fontSize=22;" vertex="1" parent="7Pi-BUBpBBkivoBTZlkI-2"><mxGeometry x="280" y="20" width="160" height="80" as="geometry"/></mxCell><mxCell id="7Pi-BUBpBBkivoBTZlkI-5" value="Communication&lt;br style=&quot;font-size: 22px;&quot;&gt;Devices" style="html=1;shadow=0;dashed=0;align=center;verticalAlign=middle;shape=mxgraph.arrows2.arrow;dy=0;dx=13.94;notch=0;strokeWidth=4;direction=south;fontSize=22;" vertex="1" parent="7Pi-BUBpBBkivoBTZlkI-2"><mxGeometry x="30" y="20" width="230" height="80" as="geometry"/></mxCell><mxCell id="7Pi-BUBpBBkivoBTZlkI-6" value="Main&lt;br&gt;Memory" style="rounded=0;whiteSpace=wrap;html=1;fontSize=40;fontColor=#FFFFFF;strokeWidth=3;fillColor=#34A5DA;strokeColor=none;" vertex="1" parent="1"><mxGeometry x="290" y="643" width="230" height="160" as="geometry"/></mxCell><mxCell id="7Pi-BUBpBBkivoBTZlkI-7" value="CPU" style="ellipse;whiteSpace=wrap;html=1;fontSize=40;fontColor=#FFFFFF;strokeWidth=3;fillColor=#34A5DA;strokeColor=none;" vertex="1" parent="1"><mxGeometry x="530" y="643" width="230" height="160" as="geometry"/></mxCell><mxCell id="7Pi-BUBpBBkivoBTZlkI-8" value="The world of running programs inside the Machine" style="rounded=0;whiteSpace=wrap;html=1;fillColor=#D9EAD3;dashed=1;strokeColor=#8ABE5E;strokeWidth=2;verticalAlign=bottom;fontSize=40;fontStyle=1" vertex="1" parent="1"><mxGeometry x="-200" y="100" width="969" height="530" as="geometry"/></mxCell><mxCell id="7Pi-BUBpBBkivoBTZlkI-9" value="UNIX Kernel" style="ellipse;whiteSpace=wrap;html=1;fillColor=#8ABE5E;fontSize=40;fontColor=#FFFFFF;strokeColor=none;verticalAlign=bottom;" vertex="1" parent="1"><mxGeometry x="-135.5" y="380" width="840" height="192" as="geometry"/></mxCell><mxCell id="7Pi-BUBpBBkivoBTZlkI-10" value="bash" style="ellipse;whiteSpace=wrap;html=1;fillColor=#8ABE5E;fontSize=32;fontColor=#FFFFFF;strokeColor=none;verticalAlign=middle;fontStyle=0" vertex="1" parent="1"><mxGeometry x="-150" y="110" width="170" height="102" as="geometry"/></mxCell><mxCell id="7Pi-BUBpBBkivoBTZlkI-11" value="" style="endArrow=block;html=1;rounded=0;fontSize=18;strokeColor=#FF0000;strokeWidth=16;endFill=1;exitX=0.963;exitY=0.578;exitDx=0;exitDy=0;exitPerimeter=0;" edge="1" parent="1" source="7Pi-BUBpBBkivoBTZlkI-5"><mxGeometry width="50" height="50" relative="1" as="geometry"><mxPoint x="-48" y="748" as="sourcePoint"/><mxPoint x="770" y="804" as="targetPoint"/><Array as="points"><mxPoint x="-63" y="810"/></Array></mxGeometry></mxCell><mxCell id="7Pi-BUBpBBkivoBTZlkI-12" value="" style="endArrow=block;html=1;rounded=0;fontSize=18;strokeColor=#FF0000;strokeWidth=16;dashed=1;endFill=1;entryX=0.5;entryY=1;entryDx=0;entryDy=0;exitX=0.013;exitY=0.57;exitDx=0;exitDy=0;exitPerimeter=0;" edge="1" parent="1" source="7Pi-BUBpBBkivoBTZlkI-5" target="7Pi-BUBpBBkivoBTZlkI-10"><mxGeometry width="50" height="50" relative="1" as="geometry"><mxPoint x="-47" y="663" as="sourcePoint"/><mxPoint x="279" y="226" as="targetPoint"/></mxGeometry></mxCell><mxCell id="7Pi-BUBpBBkivoBTZlkI-13" value="stat" style="rounded=0;whiteSpace=wrap;html=1;fontSize=18;fontStyle=1" vertex="1" parent="1"><mxGeometry x="580" y="430" width="60" height="30" as="geometry"/></mxCell><mxCell id="7Pi-BUBpBBkivoBTZlkI-14" value="close" style="rounded=0;whiteSpace=wrap;html=1;fontSize=18;fontStyle=1" vertex="1" parent="1"><mxGeometry x="510" y="410" width="60" height="30" as="geometry"/></mxCell><mxCell id="7Pi-BUBpBBkivoBTZlkI-15" value="open" style="rounded=0;whiteSpace=wrap;html=1;fontSize=18;fontStyle=1" vertex="1" parent="1"><mxGeometry x="440" y="394" width="60" height="30" as="geometry"/></mxCell><mxCell id="7Pi-BUBpBBkivoBTZlkI-16" value="write" style="rounded=0;whiteSpace=wrap;html=1;fontSize=18;fontStyle=1" vertex="1" parent="1"><mxGeometry x="370" y="388" width="60" height="30" as="geometry"/></mxCell><mxCell id="7Pi-BUBpBBkivoBTZlkI-17" value="read" style="rounded=0;whiteSpace=wrap;html=1;fontSize=18;fontStyle=1" vertex="1" parent="1"><mxGeometry x="300" y="388" width="60" height="30" as="geometry"/></mxCell><mxCell id="7Pi-BUBpBBkivoBTZlkI-18" value="mmap" style="rounded=0;whiteSpace=wrap;html=1;fontSize=18;fontStyle=1" vertex="1" parent="1"><mxGeometry x="230" y="388" width="60" height="30" as="geometry"/></mxCell><mxCell id="7Pi-BUBpBBkivoBTZlkI-19" value="brk" style="rounded=0;whiteSpace=wrap;html=1;fontSize=18;fontStyle=1" vertex="1" parent="1"><mxGeometry x="160" y="388" width="60" height="30" as="geometry"/></mxCell><mxCell id="7Pi-BUBpBBkivoBTZlkI-20" value="exit" style="rounded=0;whiteSpace=wrap;html=1;fontSize=18;fontStyle=1" vertex="1" parent="1"><mxGeometry x="90" y="394" width="60" height="30" as="geometry"/></mxCell><mxCell id="7Pi-BUBpBBkivoBTZlkI-21" value="wait" style="rounded=0;whiteSpace=wrap;html=1;fontSize=18;fontStyle=1" vertex="1" parent="1"><mxGeometry x="20" y="410" width="60" height="30" as="geometry"/></mxCell><mxCell id="7Pi-BUBpBBkivoBTZlkI-22" value="exec" style="rounded=0;whiteSpace=wrap;html=1;fontSize=18;fontStyle=1" vertex="1" parent="1"><mxGeometry x="-50" y="424" width="60" height="30" as="geometry"/></mxCell><mxCell id="7Pi-BUBpBBkivoBTZlkI-23" value="fork" style="rounded=0;whiteSpace=wrap;html=1;fontSize=18;fontStyle=1" vertex="1" parent="1"><mxGeometry x="-120" y="454" width="60" height="30" as="geometry"/></mxCell><mxCell id="7Pi-BUBpBBkivoBTZlkI-24" value="" style="ellipse;whiteSpace=wrap;html=1;aspect=fixed;fontSize=18;strokeColor=none;" vertex="1" parent="1"><mxGeometry x="660" y="474" width="10" height="10" as="geometry"/></mxCell><mxCell id="7Pi-BUBpBBkivoBTZlkI-25" value="" style="ellipse;whiteSpace=wrap;html=1;aspect=fixed;fontSize=18;strokeColor=none;" vertex="1" parent="1"><mxGeometry x="630" y="474" width="10" height="10" as="geometry"/></mxCell><mxCell id="7Pi-BUBpBBkivoBTZlkI-26" value="" style="ellipse;whiteSpace=wrap;html=1;aspect=fixed;fontSize=18;strokeColor=none;" vertex="1" parent="1"><mxGeometry x="645" y="474" width="10" height="10" as="geometry"/></mxCell><mxCell id="7Pi-BUBpBBkivoBTZlkI-27" value="" style="endArrow=classic;startArrow=none;html=1;rounded=0;fontSize=28;fontColor=#000000;strokeColor=#FFFFFF;strokeWidth=4;endFill=1;startFill=0;entryX=0.612;entryY=0.99;entryDx=0;entryDy=0;entryPerimeter=0;" edge="1" parent="1" target="7Pi-BUBpBBkivoBTZlkI-10"><mxGeometry width="50" height="50" relative="1" as="geometry"><mxPoint x="52.89214026606305" y="420" as="sourcePoint"/><mxPoint x="-36.31938859344518" y="231.73335110942025" as="targetPoint"/><Array as="points"/></mxGeometry></mxCell><mxCell id="7Pi-BUBpBBkivoBTZlkI-29" value="Step 5 of command line processing:&lt;br&gt;&amp;nbsp; &amp;nbsp;The 'ls' process's call to the 'exit' system call triggers the kernel to unpause the bash process by return from the wait system call.&amp;nbsp; The kernel passes the exit status of the 'ls' process to the 'bash' process as the return value of 'wait'.&amp;nbsp; At this point the kernel can cleanup and remove the process used to run `ls` as an external command.&amp;nbsp;&amp;nbsp;&lt;br&gt;" style="rounded=1;whiteSpace=wrap;html=1;fontSize=18;align=left;verticalAlign=top;spacing=7;spacingLeft=6;" vertex="1" parent="1"><mxGeometry x="250" y="145" width="490" height="200" as="geometry"/></mxCell><mxCell id="E94sC6m41JYbrpmBbZ8i-1" value="wait(...)" style="rounded=0;whiteSpace=wrap;html=1;align=left;strokeColor=none;fontSize=20;fontStyle=1;spacingRight=0;spacingBottom=0;spacingLeft=7;" vertex="1" parent="1"><mxGeometry x="-160" y="200" width="100" height="70" as="geometry"/></mxCell></root></mxGraphModel></diagram><diagram id="woX1hN5rmtVO_e3Kc4n8" name="Step6"><mxGraphModel dx="1990" dy="922" grid="1" gridSize="10" guides="1" tooltips="1" connect="1" arrows="1" fold="1" page="1" pageScale="1" pageWidth="850" pageHeight="1100" math="0" shadow="0"><root><mxCell id="0"/><mxCell id="1" parent="0"/><mxCell id="LoVtWxn1VrGjOymuCGdZ-1" value="The Computer -- The Hardware -- The Machine" style="rounded=0;whiteSpace=wrap;html=1;strokeWidth=4;verticalAlign=bottom;fontSize=40;fontStyle=1;fillColor=#CFE2F3;strokeColor=none;" vertex="1" parent="1"><mxGeometry x="-200" y="633" width="969" height="218" as="geometry"/></mxCell><mxCell id="LoVtWxn1VrGjOymuCGdZ-2" value="" style="group" vertex="1" connectable="0" parent="1"><mxGeometry x="-190" y="644" width="467" height="160" as="geometry"/></mxCell><mxCell id="LoVtWxn1VrGjOymuCGdZ-3" value="I/O Devices" style="rounded=1;whiteSpace=wrap;html=1;fillColor=#34A5DA;strokeColor=none;fontColor=#FFFFFF;verticalAlign=bottom;fontSize=40;" vertex="1" parent="LoVtWxn1VrGjOymuCGdZ-2"><mxGeometry width="467" height="160" as="geometry"/></mxCell><mxCell id="LoVtWxn1VrGjOymuCGdZ-4" value="Storage&lt;br style=&quot;font-size: 22px;&quot;&gt;Devices" style="shape=cylinder3;whiteSpace=wrap;html=1;boundedLbl=1;backgroundOutline=1;size=9.588235294117723;strokeWidth=3;fontSize=22;" vertex="1" parent="LoVtWxn1VrGjOymuCGdZ-2"><mxGeometry x="280" y="20" width="160" height="80" as="geometry"/></mxCell><mxCell id="LoVtWxn1VrGjOymuCGdZ-5" value="Communication&lt;br style=&quot;font-size: 22px;&quot;&gt;Devices" style="html=1;shadow=0;dashed=0;align=center;verticalAlign=middle;shape=mxgraph.arrows2.arrow;dy=0;dx=13.94;notch=0;strokeWidth=4;direction=south;fontSize=22;" vertex="1" parent="LoVtWxn1VrGjOymuCGdZ-2"><mxGeometry x="30" y="20" width="230" height="80" as="geometry"/></mxCell><mxCell id="LoVtWxn1VrGjOymuCGdZ-6" value="Main&lt;br&gt;Memory" style="rounded=0;whiteSpace=wrap;html=1;fontSize=40;fontColor=#FFFFFF;strokeWidth=3;fillColor=#34A5DA;strokeColor=none;" vertex="1" parent="1"><mxGeometry x="290" y="643" width="230" height="160" as="geometry"/></mxCell><mxCell id="LoVtWxn1VrGjOymuCGdZ-7" value="CPU" style="ellipse;whiteSpace=wrap;html=1;fontSize=40;fontColor=#FFFFFF;strokeWidth=3;fillColor=#34A5DA;strokeColor=none;" vertex="1" parent="1"><mxGeometry x="530" y="643" width="230" height="160" as="geometry"/></mxCell><mxCell id="LoVtWxn1VrGjOymuCGdZ-8" value="The world of running programs inside the Machine" style="rounded=0;whiteSpace=wrap;html=1;fillColor=#D9EAD3;dashed=1;strokeColor=#8ABE5E;strokeWidth=2;verticalAlign=bottom;fontSize=40;fontStyle=1" vertex="1" parent="1"><mxGeometry x="-200" y="100" width="969" height="530" as="geometry"/></mxCell><mxCell id="LoVtWxn1VrGjOymuCGdZ-9" value="UNIX Kernel" style="ellipse;whiteSpace=wrap;html=1;fillColor=#8ABE5E;fontSize=40;fontColor=#FFFFFF;strokeColor=none;verticalAlign=bottom;" vertex="1" parent="1"><mxGeometry x="-135.5" y="380" width="840" height="192" as="geometry"/></mxCell><mxCell id="LoVtWxn1VrGjOymuCGdZ-10" value="bash" style="ellipse;whiteSpace=wrap;html=1;fillColor=#8ABE5E;fontSize=32;fontColor=#FFFFFF;strokeColor=none;verticalAlign=middle;fontStyle=0" vertex="1" parent="1"><mxGeometry x="-150" y="110" width="170" height="102" as="geometry"/></mxCell><mxCell id="LoVtWxn1VrGjOymuCGdZ-11" value="" style="endArrow=block;html=1;rounded=0;fontSize=18;strokeColor=#FF0000;strokeWidth=16;endFill=1;exitX=0.963;exitY=0.578;exitDx=0;exitDy=0;exitPerimeter=0;" edge="1" parent="1" source="LoVtWxn1VrGjOymuCGdZ-5"><mxGeometry width="50" height="50" relative="1" as="geometry"><mxPoint x="-48" y="748" as="sourcePoint"/><mxPoint x="770" y="804" as="targetPoint"/><Array as="points"><mxPoint x="-63" y="810"/></Array></mxGeometry></mxCell><mxCell id="LoVtWxn1VrGjOymuCGdZ-12" value="" style="endArrow=block;html=1;rounded=0;fontSize=18;strokeColor=#FF0000;strokeWidth=16;dashed=1;endFill=1;entryX=0.5;entryY=1;entryDx=0;entryDy=0;exitX=0.013;exitY=0.57;exitDx=0;exitDy=0;exitPerimeter=0;" edge="1" parent="1" source="LoVtWxn1VrGjOymuCGdZ-5" target="LoVtWxn1VrGjOymuCGdZ-10"><mxGeometry width="50" height="50" relative="1" as="geometry"><mxPoint x="-47" y="663" as="sourcePoint"/><mxPoint x="279" y="226" as="targetPoint"/></mxGeometry></mxCell><mxCell id="LoVtWxn1VrGjOymuCGdZ-13" value="stat" style="rounded=0;whiteSpace=wrap;html=1;fontSize=18;fontStyle=1" vertex="1" parent="1"><mxGeometry x="580" y="430" width="60" height="30" as="geometry"/></mxCell><mxCell id="LoVtWxn1VrGjOymuCGdZ-14" value="close" style="rounded=0;whiteSpace=wrap;html=1;fontSize=18;fontStyle=1" vertex="1" parent="1"><mxGeometry x="510" y="410" width="60" height="30" as="geometry"/></mxCell><mxCell id="LoVtWxn1VrGjOymuCGdZ-15" value="open" style="rounded=0;whiteSpace=wrap;html=1;fontSize=18;fontStyle=1" vertex="1" parent="1"><mxGeometry x="440" y="394" width="60" height="30" as="geometry"/></mxCell><mxCell id="LoVtWxn1VrGjOymuCGdZ-16" value="write" style="rounded=0;whiteSpace=wrap;html=1;fontSize=18;fontStyle=1" vertex="1" parent="1"><mxGeometry x="370" y="388" width="60" height="30" as="geometry"/></mxCell><mxCell id="LoVtWxn1VrGjOymuCGdZ-17" value="read" style="rounded=0;whiteSpace=wrap;html=1;fontSize=18;fontStyle=1" vertex="1" parent="1"><mxGeometry x="300" y="388" width="60" height="30" as="geometry"/></mxCell><mxCell id="LoVtWxn1VrGjOymuCGdZ-18" value="mmap" style="rounded=0;whiteSpace=wrap;html=1;fontSize=18;fontStyle=1" vertex="1" parent="1"><mxGeometry x="230" y="388" width="60" height="30" as="geometry"/></mxCell><mxCell id="LoVtWxn1VrGjOymuCGdZ-19" value="brk" style="rounded=0;whiteSpace=wrap;html=1;fontSize=18;fontStyle=1" vertex="1" parent="1"><mxGeometry x="160" y="388" width="60" height="30" as="geometry"/></mxCell><mxCell id="LoVtWxn1VrGjOymuCGdZ-20" value="exit" style="rounded=0;whiteSpace=wrap;html=1;fontSize=18;fontStyle=1" vertex="1" parent="1"><mxGeometry x="90" y="394" width="60" height="30" as="geometry"/></mxCell><mxCell id="LoVtWxn1VrGjOymuCGdZ-21" value="wait" style="rounded=0;whiteSpace=wrap;html=1;fontSize=18;fontStyle=1" vertex="1" parent="1"><mxGeometry x="20" y="410" width="60" height="30" as="geometry"/></mxCell><mxCell id="LoVtWxn1VrGjOymuCGdZ-22" value="exec" style="rounded=0;whiteSpace=wrap;html=1;fontSize=18;fontStyle=1" vertex="1" parent="1"><mxGeometry x="-50" y="424" width="60" height="30" as="geometry"/></mxCell><mxCell id="LoVtWxn1VrGjOymuCGdZ-23" value="fork" style="rounded=0;whiteSpace=wrap;html=1;fontSize=18;fontStyle=1" vertex="1" parent="1"><mxGeometry x="-120" y="454" width="60" height="30" as="geometry"/></mxCell><mxCell id="LoVtWxn1VrGjOymuCGdZ-24" value="" style="ellipse;whiteSpace=wrap;html=1;aspect=fixed;fontSize=18;strokeColor=none;" vertex="1" parent="1"><mxGeometry x="660" y="474" width="10" height="10" as="geometry"/></mxCell><mxCell id="LoVtWxn1VrGjOymuCGdZ-25" value="" style="ellipse;whiteSpace=wrap;html=1;aspect=fixed;fontSize=18;strokeColor=none;" vertex="1" parent="1"><mxGeometry x="630" y="474" width="10" height="10" as="geometry"/></mxCell><mxCell id="LoVtWxn1VrGjOymuCGdZ-26" value="" style="ellipse;whiteSpace=wrap;html=1;aspect=fixed;fontSize=18;strokeColor=none;" vertex="1" parent="1"><mxGeometry x="645" y="474" width="10" height="10" as="geometry"/></mxCell><mxCell id="LoVtWxn1VrGjOymuCGdZ-27" value="'$ '" style="shape=step;perimeter=stepPerimeter;whiteSpace=wrap;html=1;fixedSize=1;fontSize=18;flipH=0;" vertex="1" parent="1"><mxGeometry x="600" y="740" width="169" height="52" as="geometry"/></mxCell><mxCell id="LoVtWxn1VrGjOymuCGdZ-28" value="Step 6 of command line processing:&lt;br&gt;&amp;nbsp; &amp;nbsp;Given that the 'bash' process is connected to a terminal it is in interactive mode.&amp;nbsp; So at this point it will send the prompt string to the terminal and wait to receive the next command line to be sent from the terminal.&amp;nbsp;&amp;nbsp;" style="rounded=1;whiteSpace=wrap;html=1;fontSize=18;align=left;verticalAlign=top;spacing=7;spacingLeft=6;" vertex="1" parent="1"><mxGeometry x="250" y="145" width="490" height="200" as="geometry"/></mxCell></root></mxGraphModel></diagram><diagram id="1Eg5zdkcecx-mSKaIFg-" name="Page-3"><mxGraphModel dx="1990" dy="922" grid="1" gridSize="10" guides="1" tooltips="1" connect="1" arrows="1" fold="1" page="1" pageScale="1" pageWidth="850" pageHeight="1100" math="0" shadow="0"><root><mxCell id="0"/><mxCell id="1" style="" parent="0"/><mxCell id="k9_ZbJAPq0LFkYOYL2-l-1" value="The Computer -- The Hardware -- The Machine" style="rounded=0;whiteSpace=wrap;html=1;strokeWidth=4;verticalAlign=bottom;fontSize=40;fontStyle=1;fillColor=#CFE2F3;strokeColor=none;" parent="1" vertex="1"><mxGeometry x="-200" y="633" width="969" height="218" as="geometry"/></mxCell><mxCell id="k9_ZbJAPq0LFkYOYL2-l-2" value="" style="group" parent="1" vertex="1" connectable="0"><mxGeometry x="-190" y="644" width="467" height="160" as="geometry"/></mxCell><mxCell id="k9_ZbJAPq0LFkYOYL2-l-3" value="I/O Devices" style="rounded=1;whiteSpace=wrap;html=1;fillColor=#34A5DA;strokeColor=none;fontColor=#FFFFFF;verticalAlign=bottom;fontSize=40;" parent="k9_ZbJAPq0LFkYOYL2-l-2" vertex="1"><mxGeometry width="467" height="160" as="geometry"/></mxCell><mxCell id="k9_ZbJAPq0LFkYOYL2-l-4" value="Storage&lt;br style=&quot;font-size: 22px;&quot;&gt;Devices" style="shape=cylinder3;whiteSpace=wrap;html=1;boundedLbl=1;backgroundOutline=1;size=9.588235294117723;strokeWidth=3;fontSize=22;" parent="k9_ZbJAPq0LFkYOYL2-l-2" vertex="1"><mxGeometry x="280" y="20" width="160" height="80" as="geometry"/></mxCell><mxCell id="k9_ZbJAPq0LFkYOYL2-l-5" value="Communication&lt;br style=&quot;font-size: 22px;&quot;&gt;Devices" style="html=1;shadow=0;dashed=0;align=center;verticalAlign=middle;shape=mxgraph.arrows2.arrow;dy=0;dx=13.94;notch=0;strokeWidth=4;direction=south;fontSize=22;" parent="k9_ZbJAPq0LFkYOYL2-l-2" vertex="1"><mxGeometry x="30" y="20" width="230" height="80" as="geometry"/></mxCell><mxCell id="k9_ZbJAPq0LFkYOYL2-l-6" value="Main&lt;br&gt;Memory" style="rounded=0;whiteSpace=wrap;html=1;fontSize=40;fontColor=#FFFFFF;strokeWidth=3;fillColor=#34A5DA;strokeColor=none;" parent="1" vertex="1"><mxGeometry x="290" y="643" width="230" height="160" as="geometry"/></mxCell><mxCell id="k9_ZbJAPq0LFkYOYL2-l-7" value="CPU" style="ellipse;whiteSpace=wrap;html=1;fontSize=40;fontColor=#FFFFFF;strokeWidth=3;fillColor=#34A5DA;strokeColor=none;" parent="1" vertex="1"><mxGeometry x="530" y="643" width="230" height="160" as="geometry"/></mxCell><mxCell id="k9_ZbJAPq0LFkYOYL2-l-8" value="The world of running programs inside the Machine" style="rounded=0;whiteSpace=wrap;html=1;fillColor=#D9EAD3;dashed=1;strokeColor=#8ABE5E;strokeWidth=2;verticalAlign=bottom;fontSize=40;fontStyle=1" parent="1" vertex="1"><mxGeometry x="-200" y="100" width="969" height="530" as="geometry"/></mxCell><mxCell id="k9_ZbJAPq0LFkYOYL2-l-9" value="UNIX Kernel" style="ellipse;whiteSpace=wrap;html=1;fillColor=#8ABE5E;fontSize=40;fontColor=#FFFFFF;strokeColor=none;verticalAlign=bottom;" parent="1" vertex="1"><mxGeometry x="-135.5" y="380" width="840" height="192" as="geometry"/></mxCell><mxCell id="k9_ZbJAPq0LFkYOYL2-l-10" value="bash" style="ellipse;whiteSpace=wrap;html=1;fillColor=#8ABE5E;fontSize=32;fontColor=#FFFFFF;strokeColor=none;verticalAlign=middle;fontStyle=0" parent="1" vertex="1"><mxGeometry x="-150" y="110" width="170" height="102" as="geometry"/></mxCell><mxCell id="k9_ZbJAPq0LFkYOYL2-l-23" value="" style="endArrow=block;html=1;rounded=0;fontSize=18;strokeColor=#FF0000;strokeWidth=16;endFill=1;exitX=0.963;exitY=0.578;exitDx=0;exitDy=0;exitPerimeter=0;" parent="1" source="k9_ZbJAPq0LFkYOYL2-l-5" edge="1"><mxGeometry width="50" height="50" relative="1" as="geometry"><mxPoint x="-48" y="748" as="sourcePoint"/><mxPoint x="770" y="804" as="targetPoint"/><Array as="points"><mxPoint x="-63" y="810"/></Array></mxGeometry></mxCell><mxCell id="k9_ZbJAPq0LFkYOYL2-l-24" value="" style="endArrow=block;html=1;rounded=0;fontSize=18;strokeColor=#FF0000;strokeWidth=16;dashed=1;endFill=1;entryX=0.5;entryY=1;entryDx=0;entryDy=0;exitX=0.013;exitY=0.57;exitDx=0;exitDy=0;exitPerimeter=0;" parent="1" source="k9_ZbJAPq0LFkYOYL2-l-5" target="k9_ZbJAPq0LFkYOYL2-l-10" edge="1"><mxGeometry width="50" height="50" relative="1" as="geometry"><mxPoint x="-47" y="663" as="sourcePoint"/><mxPoint x="279" y="226" as="targetPoint"/></mxGeometry></mxCell><mxCell id="k9_ZbJAPq0LFkYOYL2-l-31" value="stat" style="rounded=0;whiteSpace=wrap;html=1;fontSize=18;fontStyle=1" parent="1" vertex="1"><mxGeometry x="580" y="430" width="60" height="30" as="geometry"/></mxCell><mxCell id="k9_ZbJAPq0LFkYOYL2-l-32" value="close" style="rounded=0;whiteSpace=wrap;html=1;fontSize=18;fontStyle=1" parent="1" vertex="1"><mxGeometry x="510" y="410" width="60" height="30" as="geometry"/></mxCell><mxCell id="k9_ZbJAPq0LFkYOYL2-l-33" value="open" style="rounded=0;whiteSpace=wrap;html=1;fontSize=18;fontStyle=1" parent="1" vertex="1"><mxGeometry x="440" y="394" width="60" height="30" as="geometry"/></mxCell><mxCell id="k9_ZbJAPq0LFkYOYL2-l-34" value="write" style="rounded=0;whiteSpace=wrap;html=1;fontSize=18;fontStyle=1" parent="1" vertex="1"><mxGeometry x="370" y="388" width="60" height="30" as="geometry"/></mxCell><mxCell id="k9_ZbJAPq0LFkYOYL2-l-35" value="read" style="rounded=0;whiteSpace=wrap;html=1;fontSize=18;fontStyle=1" parent="1" vertex="1"><mxGeometry x="300" y="388" width="60" height="30" as="geometry"/></mxCell><mxCell id="k9_ZbJAPq0LFkYOYL2-l-36" value="mmap" style="rounded=0;whiteSpace=wrap;html=1;fontSize=18;fontStyle=1" parent="1" vertex="1"><mxGeometry x="230" y="388" width="60" height="30" as="geometry"/></mxCell><mxCell id="k9_ZbJAPq0LFkYOYL2-l-37" value="brk" style="rounded=0;whiteSpace=wrap;html=1;fontSize=18;fontStyle=1" parent="1" vertex="1"><mxGeometry x="160" y="388" width="60" height="30" as="geometry"/></mxCell><mxCell id="k9_ZbJAPq0LFkYOYL2-l-38" value="exit" style="rounded=0;whiteSpace=wrap;html=1;fontSize=18;fontStyle=1" parent="1" vertex="1"><mxGeometry x="90" y="394" width="60" height="30" as="geometry"/></mxCell><mxCell id="k9_ZbJAPq0LFkYOYL2-l-39" value="wait" style="rounded=0;whiteSpace=wrap;html=1;fontSize=18;fontStyle=1" parent="1" vertex="1"><mxGeometry x="20" y="410" width="60" height="30" as="geometry"/></mxCell><mxCell id="k9_ZbJAPq0LFkYOYL2-l-40" value="exec" style="rounded=0;whiteSpace=wrap;html=1;fontSize=18;fontStyle=1" parent="1" vertex="1"><mxGeometry x="-50" y="424" width="60" height="30" as="geometry"/></mxCell><mxCell id="k9_ZbJAPq0LFkYOYL2-l-41" value="fork" style="rounded=0;whiteSpace=wrap;html=1;fontSize=18;fontStyle=1" parent="1" vertex="1"><mxGeometry x="-120" y="454" width="60" height="30" as="geometry"/></mxCell><mxCell id="k9_ZbJAPq0LFkYOYL2-l-42" value="" style="ellipse;whiteSpace=wrap;html=1;aspect=fixed;fontSize=18;strokeColor=none;" parent="1" vertex="1"><mxGeometry x="660" y="474" width="10" height="10" as="geometry"/></mxCell><mxCell id="k9_ZbJAPq0LFkYOYL2-l-43" value="" style="ellipse;whiteSpace=wrap;html=1;aspect=fixed;fontSize=18;strokeColor=none;" parent="1" vertex="1"><mxGeometry x="630" y="474" width="10" height="10" as="geometry"/></mxCell><mxCell id="k9_ZbJAPq0LFkYOYL2-l-44" value="" style="ellipse;whiteSpace=wrap;html=1;aspect=fixed;fontSize=18;strokeColor=none;" parent="1" vertex="1"><mxGeometry x="645" y="474" width="10" height="10" as="geometry"/></mxCell><mxCell id="YYZggtTks0jWf2CwMU50-20" value="cmdline" parent="0"/><mxCell id="k9_ZbJAPq0LFkYOYL2-l-25" value="ls /etc&amp;nbsp;" style="shape=step;perimeter=stepPerimeter;whiteSpace=wrap;html=1;fixedSize=1;fontSize=18;flipH=1;" parent="YYZggtTks0jWf2CwMU50-20" vertex="1"><mxGeometry x="610" y="730" width="159" height="62" as="geometry"/></mxCell><mxCell id="YYZggtTks0jWf2CwMU50-1" value="1" style="" parent="0" visible="0"/><mxCell id="k9_ZbJAPq0LFkYOYL2-l-26" value="Step 4B of command line Processing: Request the kernel to execute an external command with:&lt;br&gt;Executable: /usr/bin/ls&lt;br&gt;Arguments:&lt;br&gt;&lt;span style=&quot;white-space: pre;&quot;&gt;&#9;&lt;/span&gt;1. /etc&lt;br&gt;Redirections:&lt;br&gt;&lt;span style=&quot;white-space: pre;&quot;&gt;&#9;&lt;/span&gt;None" style="rounded=1;whiteSpace=wrap;html=1;fontSize=18;align=left;verticalAlign=top;spacing=7;" parent="YYZggtTks0jWf2CwMU50-1" vertex="1"><mxGeometry x="30" y="110" width="350" height="190" as="geometry"/></mxCell><mxCell id="YYZggtTks0jWf2CwMU50-2" value="2" style="" parent="0" visible="0"/><mxCell id="k9_ZbJAPq0LFkYOYL2-l-12" value="" style="endArrow=classic;startArrow=classic;html=1;rounded=0;fontSize=28;fontColor=#000000;strokeColor=#FFFFFF;strokeWidth=4;exitX=0.5;exitY=0;exitDx=0;exitDy=0;" parent="YYZggtTks0jWf2CwMU50-2" source="k9_ZbJAPq0LFkYOYL2-l-40" target="k9_ZbJAPq0LFkYOYL2-l-10" edge="1"><mxGeometry width="50" height="50" relative="1" as="geometry"><mxPoint x="-75" y="460" as="sourcePoint"/><mxPoint x="230" y="210" as="targetPoint"/><Array as="points"/></mxGeometry></mxCell><mxCell id="k9_ZbJAPq0LFkYOYL2-l-11" value="" style="endArrow=classic;startArrow=classic;html=1;rounded=0;fontSize=28;fontColor=#000000;strokeColor=#FFFFFF;strokeWidth=4;" parent="YYZggtTks0jWf2CwMU50-2" target="k9_ZbJAPq0LFkYOYL2-l-10" edge="1"><mxGeometry width="50" height="50" relative="1" as="geometry"><mxPoint x="-85" y="450" as="sourcePoint"/><mxPoint x="220" y="200" as="targetPoint"/><Array as="points"/></mxGeometry></mxCell><mxCell id="YYZggtTks0jWf2CwMU50-3" value="fork(...)&lt;br style=&quot;font-size: 20px;&quot;&gt;exec(&quot;/usr/bin/ls&quot;, args, env)" style="rounded=0;whiteSpace=wrap;html=1;align=left;strokeColor=none;fontSize=20;fontStyle=1;spacingRight=0;spacingBottom=0;spacingLeft=7;" parent="YYZggtTks0jWf2CwMU50-2" vertex="1"><mxGeometry x="-30" y="220" width="310" height="70" as="geometry"/></mxCell><mxCell id="YYZggtTks0jWf2CwMU50-4" value="3" style="" parent="0"/><mxCell id="YYZggtTks0jWf2CwMU50-5" value="/usr/bin/ls" style="ellipse;whiteSpace=wrap;html=1;fillColor=#8ABE5E;fontSize=32;fontColor=#FFFFFF;strokeColor=none;verticalAlign=middle;fontStyle=0" parent="YYZggtTks0jWf2CwMU50-4" vertex="1"><mxGeometry x="50" y="170" width="170" height="102" as="geometry"/></mxCell><mxCell id="YYZggtTks0jWf2CwMU50-6" value="&lt;font color=&quot;#ffffff&quot;&gt;args&lt;/font&gt;" style="rounded=0;whiteSpace=wrap;html=1;fontSize=20;fillColor=#8ABE5E;strokeColor=none;" parent="YYZggtTks0jWf2CwMU50-4" vertex="1"><mxGeometry x="61" y="132" width="70" height="60" as="geometry"/></mxCell><mxCell id="YYZggtTks0jWf2CwMU50-7" value="&lt;font color=&quot;#ffffff&quot;&gt;env&lt;/font&gt;" style="rounded=0;whiteSpace=wrap;html=1;fontSize=20;fillColor=#8ABE5E;strokeColor=none;" parent="YYZggtTks0jWf2CwMU50-4" vertex="1"><mxGeometry x="134" y="131" width="70" height="60" as="geometry"/></mxCell><mxCell id="YYZggtTks0jWf2CwMU50-8" value="" style="endArrow=block;html=1;rounded=0;fontSize=18;strokeColor=#FF0000;strokeWidth=16;dashed=1;endFill=1;entryX=0.5;entryY=1;entryDx=0;entryDy=0;" parent="YYZggtTks0jWf2CwMU50-4" edge="1"><mxGeometry width="50" height="50" relative="1" as="geometry"><mxPoint x="-60" y="660" as="sourcePoint"/><mxPoint x="130.1" y="260" as="targetPoint"/></mxGeometry></mxCell></root></mxGraphModel></diagram></mxfile>